<svg width="1280" height="720" viewBox="0 0 1280 720" fill="none" xmlns="http://www.w3.org/2000/svg">
  <defs>
    <linearGradient id="bg-data" x1="200" y1="70" x2="1080" y2="650" gradientUnits="userSpaceOnUse">
      <stop stop-color="#36D4C7"/>
      <stop offset="1" stop-color="#1EAA9F"/>
    </linearGradient>
    <linearGradient id="cube-data" x1="0" y1="0" x2="1" y2="1">
      <stop stop-color="#F8FFFD"/>
      <stop offset="1" stop-color="#CCF6F2"/>
    </linearGradient>
  </defs>
  <rect width="1280" height="720" fill="#141A2A"/>
  <polygon points="280,0 1280,0 1000,720 0,720" fill="url(#bg-data)"/>
  <rect x="170" y="140" width="522" height="442" rx="32" fill="white" fill-opacity="0.16" stroke="white" stroke-opacity="0.28" stroke-width="3"/>
  <path d="M272 286L430 206L588 286L430 366L272 286Z" fill="url(#cube-data)"/>
  <path d="M430 366V500L588 420V286L430 366Z" fill="#D6FFF8" fill-opacity="0.86"/>
  <path d="M430 366V500L272 420V286L430 366Z" fill="#BCF5EB"/>
  <path d="M430 436L348 390M430 436L512 390M430 468L348 422M430 468L512 422" stroke="#1C9F95" stroke-width="5" stroke-linecap="round"/>
  <rect x="742" y="192" width="364" height="98" rx="16" fill="white" fill-opacity="0.24"/>
  <rect x="742" y="316" width="364" height="98" rx="16" fill="white" fill-opacity="0.21"/>
  <rect x="742" y="440" width="364" height="98" rx="16" fill="white" fill-opacity="0.17"/>
  <path d="M780 233H990M780 355H1044M780 479H956" stroke="white" stroke-opacity="0.72" stroke-width="10" stroke-linecap="round"/>
  <circle cx="1060" cy="233" r="18" fill="#D9FFF8" fill-opacity="0.9"/>
  <circle cx="1088" cy="355" r="18" fill="#D9FFF8" fill-opacity="0.82"/>
  <circle cx="1000" cy="479" r="18" fill="#D9FFF8" fill-opacity="0.76"/>
</svg>
