<svg width="1280" height="720" viewBox="0 0 1280 720" fill="none" xmlns="http://www.w3.org/2000/svg">
  <defs>
    <linearGradient id="bg-wearable" x1="160" y1="70" x2="1110" y2="650" gradientUnits="userSpaceOnUse">
      <stop stop-color="#66E4DF"/>
      <stop offset="1" stop-color="#3DB7C2"/>
    </linearGradient>
    <radialGradient id="glow-wearable" cx="0" cy="0" r="1" gradientUnits="userSpaceOnUse" gradientTransform="translate(710 340) rotate(70) scale(370 420)">
      <stop stop-color="white" stop-opacity="0.32"/>
      <stop offset="1" stop-color="white" stop-opacity="0"/>
    </radialGradient>
  </defs>
  <rect width="1280" height="720" fill="#141A2A"/>
  <polygon points="300,0 1280,0 1015,720 20,720" fill="url(#bg-wearable)"/>
  <circle cx="760" cy="340" r="290" fill="url(#glow-wearable)"/>
  <rect x="214" y="180" width="330" height="430" rx="165" fill="#F8FAFD" fill-opacity="0.95"/>
  <rect x="244" y="228" width="270" height="334" rx="44" fill="#1B2434"/>
  <rect x="275" y="256" width="208" height="278" rx="30" fill="#27344B"/>
  <rect x="287" y="272" width="184" height="74" rx="18" fill="#FF7A42"/>
  <rect x="287" y="362" width="126" height="18" rx="9" fill="#9CCFF6" fill-opacity="0.72"/>
  <rect x="287" y="390" width="162" height="18" rx="9" fill="#9CCFF6" fill-opacity="0.56"/>
  <rect x="287" y="447" width="184" height="64" rx="16" fill="#58DFD9" fill-opacity="0.82"/>
  <circle cx="383" cy="196" r="8" fill="#AABFD7"/>
  <path d="M126 94H258M92 136H214M108 632H240M58 584H190" stroke="white" stroke-opacity="0.25" stroke-width="4" stroke-linecap="round"/>
  <circle cx="946" cy="152" r="4" fill="white" fill-opacity="0.4"/>
  <circle cx="1028" cy="210" r="6" fill="white" fill-opacity="0.32"/>
  <circle cx="970" cy="286" r="5" fill="white" fill-opacity="0.28"/>
</svg>
