<svg xmlns="http://www.w3.org/2000/svg" xmlns:xlink="http://www.w3.org/1999/xlink" version="1.0" x="0" y="0" width="2400" height="1545.2148231467743" viewBox="83.74880249023437 69.4680712890625 172.50239501953126 111.063857421875" preserveAspectRatio="xMidYMid meet" color-interpolation-filters="sRGB"><g><defs><linearGradient id="92" x1="0%" y1="0%" x2="100%" y2="0%"><stop offset="0%" stop-color="#fa71cd"></stop> <stop offset="100%" stop-color="#9b59b6"></stop></linearGradient><linearGradient id="93" x1="0%" y1="0%" x2="100%" y2="0%"><stop offset="0%" stop-color="#f9d423"></stop> <stop offset="100%" stop-color="#f83600"></stop></linearGradient><linearGradient id="94" x1="0%" y1="0%" x2="100%" y2="0%"><stop offset="0%" stop-color="#0064d2"></stop> <stop offset="100%" stop-color="#1cb0f6"></stop></linearGradient><linearGradient id="95" x1="0%" y1="0%" x2="100%" y2="0%"><stop offset="0%" stop-color="#f00978"></stop> <stop offset="100%" stop-color="#3f51b1"></stop></linearGradient><linearGradient id="96" x1="0%" y1="0%" x2="100%" y2="0%"><stop offset="0%" stop-color="#7873f5"></stop> <stop offset="100%" stop-color="#ec77ab"></stop></linearGradient><linearGradient id="97" x1="0%" y1="0%" x2="100%" y2="0%"><stop offset="0%" stop-color="#f9d423"></stop> <stop offset="100%" stop-color="#e14fad"></stop></linearGradient><linearGradient id="98" x1="0%" y1="0%" x2="100%" y2="0%"><stop offset="0%" stop-color="#009efd"></stop> <stop offset="100%" stop-color="#2af598"></stop></linearGradient><linearGradient id="99" x1="0%" y1="0%" x2="100%" y2="0%"><stop offset="0%" stop-color="#ffcc00"></stop> <stop offset="100%" stop-color="#00b140"></stop></linearGradient><linearGradient id="100" x1="0%" y1="0%" x2="100%" y2="0%"><stop offset="0%" stop-color="#d51007"></stop> <stop offset="100%" stop-color="#ff8177"></stop></linearGradient><linearGradient id="102" x1="0%" y1="0%" x2="100%" y2="0%"><stop offset="0%" stop-color="#a2b6df"></stop> <stop offset="100%" stop-color="#0c3483"></stop></linearGradient><linearGradient id="103" x1="0%" y1="0%" x2="100%" y2="0%"><stop offset="0%" stop-color="#7ac5d8"></stop> <stop offset="100%" stop-color="#eea2a2"></stop></linearGradient><linearGradient id="104" x1="0%" y1="0%" x2="100%" y2="0%"><stop offset="0%" stop-color="#00ecbc"></stop> <stop offset="100%" stop-color="#007adf"></stop></linearGradient><linearGradient id="105" x1="0%" y1="0%" x2="100%" y2="0%"><stop offset="0%" stop-color="#b88746"></stop> <stop offset="100%" stop-color="#fdf5a6"></stop></linearGradient></defs><g fill="#FFFFFF" class="icon-text-wrapper icon-svg-group iconsvg" transform="translate(88.25,71.15927124023438)"><g class="iconsvg-imagesvg" transform="translate(51.75,0)"><g><rect fill="#FFFFFF" fill-opacity="0" stroke-width="2" x="0" y="0" width="60" height="51.771446321638734" class="image-rect"></rect> <svg x="0" y="0" width="60" height="51.771446321638734" filtersec="colorsb9117019300" class="image-svg-svg primary" style="overflow: visible;"><svg xmlns="http://www.w3.org/2000/svg" viewBox="0 0 175 151"><path fill="#FFFFFF" d="M160 24l15-24H0l58 100 29-50H60L44 25l116-1z"></path><path fill="#f11c22" d="M117 50l-14 25 28 1 14-26h-28zm-30 50l-14 25 14 26 30-51H87z"></path></svg></svg> </g></g> <g transform="translate(0,58.771446228027344)"><g fill-rule="" class="tp-name iconsvg-namesvg" transform="translate(0,0)"><g transform="scale(1)"><g><path d="M24.78-30.16L24.78-22.82 20.98-22.82 20.98-24.35Q20.98-25.63 20.6-26.02 20.21-26.4 18.65-26.4L18.65-26.4 10.18-26.4 10.18-17.44 15.9-17.44Q16.93-17.44 17.16-17.73 17.4-18.01 17.4-18.93L17.4-18.93 17.4-20.02 20.98-20.02 20.98-10.93 17.4-10.93 17.4-12.23Q17.4-12.87 17.3-13.15 17.2-13.43 16.84-13.55 16.48-13.68 15.73-13.68L15.73-13.68 10.18-13.68 10.18-5.12Q10.18-3.84 10.5-3.45 10.82-3.05 12.27-3.05L12.27-3.05 13.55-3.05 13.55 0 1.96 0 1.96-3.05 2.84-3.05Q4.25-3.05 4.59-3.46 4.93-3.86 4.93-5.34L4.93-5.34 4.93-24.95Q4.93-26.3 4.59-26.7 4.25-27.11 2.84-27.11L2.84-27.11 1.96-27.11 1.96-30.16 24.78-30.16ZM51.03-7.51L51.03 0 27.9 0 27.9-3.05 28.99-3.05Q29.9-3.05 30.28-3.25 30.65-3.46 30.74-3.84 30.82-4.23 30.82-5.08L30.82-5.08 30.82-25.23Q30.82-26.32 30.52-26.71 30.22-27.11 28.99-27.11L28.99-27.11 27.9-27.11 27.9-30.16 50.54-30.16 50.54-22.82 46.62-22.82 46.62-24.65Q46.62-25.83 46.17-26.11 45.72-26.4 44.2-26.4L44.2-26.4 36.11-26.4 36.11-17.35 42.37-17.35Q43.33-17.35 43.62-17.61 43.91-17.87 43.91-18.8L43.91-18.8 43.91-19.98 47.49-19.98 47.49-10.89 43.91-10.89 43.91-12.34Q43.91-13.11 43.61-13.37 43.31-13.64 42.37-13.64L42.37-13.64 36.11-13.64 36.11-3.67 45.12-3.67Q46.08-3.67 46.51-3.87 46.94-4.08 47.03-4.46 47.13-4.85 47.13-5.68L47.13-5.68 47.13-7.51 51.03-7.51ZM82.11-3.05L82.11 0 74.34 0 67.6-13.02 62.97-13.02 62.97-4.89Q62.97-4.14 63.1-3.77 63.24-3.39 63.65-3.22 64.05-3.05 64.97-3.05L64.97-3.05 65.93-3.05 65.93 0 54.79 0 54.79-3.05 55.75-3.05Q56.73-3.05 57.16-3.25 57.59-3.46 57.67-3.86 57.76-4.27 57.76-5.21L57.76-5.21 57.76-25.06Q57.76-26.27 57.44-26.69 57.12-27.11 55.75-27.11L55.75-27.11 54.79-27.11 54.79-30.16 67.6-30.16Q68.49-30.16 70.17-30 71.84-29.84 72.85-29.41L72.85-29.41Q74.92-28.58 75.99-27.18 77.05-25.78 77.37-24.4 77.69-23.01 77.69-21.81L77.69-21.81Q77.69-19.25 76.76-17.61 75.84-15.97 74.79-15.21 73.74-14.45 72.68-14.02L72.68-14.02 77.27-5.63Q77.84-4.55 78.51-3.96 79.19-3.37 79.78-3.21 80.38-3.05 81.15-3.05L81.15-3.05 82.11-3.05ZM72.68-21.6L72.68-21.6Q72.68-26.57 66.81-26.57L66.81-26.57 62.97-26.57 62.97-16.52 66.47-16.52Q67.87-16.52 69.18-16.79 70.48-17.05 71.58-18.19 72.68-19.32 72.68-21.6ZM110.78-3.05L110.78 0 103.01 0 96.26-13.02 91.63-13.02 91.63-4.89Q91.63-4.14 91.77-3.77 91.91-3.39 92.31-3.22 92.72-3.05 93.64-3.05L93.64-3.05 94.6-3.05 94.6 0 83.46 0 83.46-3.05 84.42-3.05Q85.4-3.05 85.83-3.25 86.25-3.46 86.34-3.86 86.42-4.27 86.42-5.21L86.42-5.21 86.42-25.06Q86.42-26.27 86.1-26.69 85.78-27.11 84.42-27.11L84.42-27.11 83.46-27.11 83.46-30.16 96.26-30.16Q97.16-30.16 98.83-30 100.51-29.84 101.51-29.41L101.51-29.41Q103.58-28.58 104.65-27.18 105.72-25.78 106.04-24.4 106.36-23.01 106.36-21.81L106.36-21.81Q106.36-19.25 105.43-17.61 104.5-15.97 103.46-15.21 102.41-14.45 101.34-14.02L101.34-14.02 105.93-5.63Q106.51-4.55 107.18-3.96 107.85-3.37 108.45-3.21 109.05-3.05 109.82-3.05L109.82-3.05 110.78-3.05ZM101.34-21.6L101.34-21.6Q101.34-26.57 95.47-26.57L95.47-26.57 91.63-26.57 91.63-16.52 95.13-16.52Q96.54-16.52 97.84-16.79 99.14-17.05 100.24-18.19 101.34-19.32 101.34-21.6ZM135.26-7.51L135.26 0 112.12 0 112.12-3.05 113.21-3.05Q114.13-3.05 114.5-3.25 114.87-3.46 114.96-3.84 115.05-4.23 115.05-5.08L115.05-5.08 115.05-25.23Q115.05-26.32 114.75-26.71 114.45-27.11 113.21-27.11L113.21-27.11 112.12-27.11 112.12-30.16 134.77-30.16 134.77-22.82 130.84-22.82 130.84-24.65Q130.84-25.83 130.39-26.11 129.94-26.4 128.43-26.4L128.43-26.4 120.34-26.4 120.34-17.35 126.59-17.35Q127.55-17.35 127.84-17.61 128.13-17.87 128.13-18.8L128.13-18.8 128.13-19.98 131.72-19.98 131.72-10.89 128.13-10.89 128.13-12.34Q128.13-13.11 127.83-13.37 127.53-13.64 126.59-13.64L126.59-13.64 120.34-13.64 120.34-3.67 129.35-3.67Q130.31-3.67 130.73-3.87 131.16-4.08 131.26-4.46 131.35-4.85 131.35-5.68L131.35-5.68 131.35-7.51 135.26-7.51ZM165.46-30.16L165.46-22.03 161.53-22.03 161.53-24.65Q161.53-25.46 161.45-25.81 161.36-26.15 160.96-26.32 160.55-26.49 159.57-26.49L159.57-26.49 154.53-26.49 154.53-5.25Q154.53-3.84 154.86-3.45 155.19-3.05 156.73-3.05L156.73-3.05 157.73-3.05 157.73 0 146.06 0 146.06-3.05 147.32-3.05Q148.68-3.05 148.96-3.44 149.24-3.82 149.24-5.08L149.24-5.08 149.24-26.49 144.31-26.49Q143.28-26.49 142.88-26.35 142.47-26.21 142.37-25.83 142.26-25.44 142.26-24.35L142.26-24.35 142.26-22.03 138.31-22.03 138.31-30.16 165.46-30.16Z" transform="translate(-1.9600000381469727, 30.15999984741211)"></path></g> </g></g> <g fill-rule="" class="tp-slogan iconsvg-slogansvg" fill="#F11C22" transform="translate(-2.80999755859375,36.15999984741211)"> <g mask="url(#41693f5a-0a01-4d01-98b8-67bf736b1348)"><g><rect stroke-width="2" class="i-icon-bg" x="0" y="0" width="169.1199951171875" height="12.750000953674316" fill-opacity="1"></rect> </g> <g transform="translate(5,2)"><g transform="scale(1, 1)" fill="#FFFFFF"><g transform="scale(1)"><path d="M7.79-8.28L7.79-6.05L6.71-6.05L6.71-6.77Q6.71-6.99 6.69-7.08Q6.66-7.18 6.55-7.22Q6.44-7.27 6.17-7.27L6.17-7.27L4.79-7.27L4.79-1.44Q4.79-1.05 4.88-0.95Q4.97-0.84 5.39-0.84L5.39-0.84L5.67-0.84L5.67 0L2.46 0L2.46-0.84L2.81-0.84Q3.18-0.84 3.26-0.94Q3.33-1.05 3.33-1.39L3.33-1.39L3.33-7.27L1.98-7.27Q1.70-7.27 1.59-7.23Q1.48-7.20 1.45-7.09Q1.42-6.98 1.42-6.69L1.42-6.69L1.42-6.05L0.33-6.05L0.33-8.28L7.79-8.28ZM21-2.06L21 0L14.65 0L14.65-0.84L14.95-0.84Q15.20-0.84 15.30-0.89Q15.40-0.95 15.43-1.05Q15.45-1.16 15.45-1.39L15.45-1.39L15.45-6.93Q15.45-7.22 15.37-7.33Q15.29-7.44 14.95-7.44L14.95-7.44L14.65-7.44L14.65-8.28L20.87-8.28L20.87-6.26L19.79-6.26L19.79-6.77Q19.79-7.09 19.66-7.17Q19.54-7.25 19.13-7.25L19.13-7.25L16.90-7.25L16.90-4.76L18.62-4.76Q18.88-4.76 18.96-4.83Q19.04-4.90 19.04-5.16L19.04-5.16L19.04-5.48L20.03-5.48L20.03-2.99L19.04-2.99L19.04-3.39Q19.04-3.60 18.96-3.67Q18.88-3.74 18.62-3.74L18.62-3.74L16.90-3.74L16.90-1.01L19.38-1.01Q19.64-1.01 19.76-1.06Q19.88-1.12 19.90-1.22Q19.93-1.33 19.93-1.56L19.93-1.56L19.93-2.06L21-2.06ZM35.02-1.96L35.02-0.67Q33.81 0.23 32.09 0.23L32.09 0.23Q30.74 0.23 29.84-0.40Q28.93-1.03 28.51-2.00Q28.09-2.98 28.09-4.05L28.09-4.05Q28.09-4.72 28.28-5.47Q28.46-6.22 28.93-6.92Q29.40-7.62 30.23-8.07Q31.07-8.52 32.30-8.52L32.30-8.52Q33.80-8.52 35.02-7.85L35.02-7.85L35.02-5.70L33.80-5.70L33.80-5.92Q33.80-6.48 33.74-6.74L33.74-6.74Q33.64-7.16 33.17-7.35Q32.69-7.54 32.22-7.54L32.22-7.54Q31.38-7.54 30.79-7.11Q30.19-6.69 29.89-5.93Q29.59-5.18 29.59-4.25L29.59-4.25Q29.59-3.11 29.99-2.37Q30.39-1.63 31.01-1.30Q31.62-0.97 32.27-0.97L32.27-0.97Q32.58-0.97 33.01-1.05Q33.45-1.12 33.98-1.33Q34.50-1.55 35.02-1.96L35.02-1.96ZM50.24-0.84L50.24 0L47.17 0L47.17-0.84L47.41-0.84Q47.80-0.84 47.89-0.95Q47.98-1.05 47.98-1.39L47.98-1.39L47.98-3.86L44.38-3.86L44.38-1.50Q44.38-1.20 44.41-1.08Q44.44-0.96 44.55-0.90Q44.67-0.84 44.94-0.84L44.94-0.84L45.20-0.84L45.20 0L42.13 0L42.13-0.84L42.43-0.84Q42.77-0.84 42.86-0.94Q42.94-1.05 42.94-1.39L42.94-1.39L42.94-6.89Q42.94-7.22 42.85-7.33Q42.76-7.44 42.39-7.44L42.39-7.44L42.13-7.44L42.13-8.28L45.20-8.28L45.20-7.44L44.94-7.44Q44.57-7.44 44.48-7.32Q44.38-7.20 44.38-6.89L44.38-6.89L44.38-4.95L47.98-4.95L47.98-6.89Q47.98-7.21 47.89-7.33Q47.80-7.44 47.41-7.44L47.41-7.44L47.17-7.44L47.17-8.28L50.24-8.28L50.24-7.44L49.97-7.44Q49.61-7.44 49.52-7.34Q49.44-7.24 49.44-6.89L49.44-6.89L49.44-1.39Q49.44-1.06 49.53-0.95Q49.62-0.84 49.97-0.84L49.97-0.84L50.24-0.84ZM65.21-8.28L65.21-7.44L64.94-7.44Q64.68-7.44 64.57-7.39Q64.46-7.33 64.44-7.22Q64.41-7.11 64.41-6.85L64.41-6.85L64.41 0.05L62.92 0.05L59.29-6.72L59.26-6.72L59.26-1.41Q59.26-1.16 59.29-1.05Q59.31-0.95 59.43-0.89Q59.55-0.84 59.82-0.84L59.82-0.84L60.06-0.84L60.06 0L57.29 0L57.29-0.84L57.56-0.84Q57.81-0.84 57.93-0.89Q58.04-0.94 58.07-1.06Q58.10-1.17 58.10-1.44L58.10-1.44L58.10-6.90Q58.10-7.22 58.01-7.33Q57.92-7.44 57.56-7.44L57.56-7.44L57.29-7.44L57.29-8.28L60.01-8.28L63.22-2.20L63.25-2.20L63.25-6.85Q63.25-7.10 63.22-7.21Q63.19-7.32 63.07-7.38Q62.95-7.44 62.66-7.44L62.66-7.44L62.46-7.44L62.46-8.28L65.21-8.28ZM80.30-4.22L80.30-4.22Q80.30-2.95 79.81-1.93Q79.32-0.92 78.39-0.35Q77.47 0.23 76.21 0.23L76.21 0.23Q75.31 0.23 74.56-0.08Q73.81-0.39 73.28-0.96Q72.75-1.54 72.47-2.33Q72.20-3.12 72.20-4.05L72.20-4.05Q72.20-5.07 72.49-5.90Q72.77-6.73 73.32-7.32Q73.87-7.91 74.63-8.21Q75.38-8.52 76.29-8.52L76.29-8.52Q77.62-8.52 78.53-7.94Q79.44-7.36 79.87-6.38Q80.30-5.41 80.30-4.22ZM78.76-4.26L78.76-4.26Q78.76-4.86 78.65-5.40Q78.54-5.94 78.26-6.41Q77.99-6.88 77.50-7.17Q77.01-7.45 76.27-7.45L76.27-7.45Q75.46-7.45 74.89-7.06Q74.32-6.67 74.03-5.92Q73.73-5.16 73.73-4.10L73.73-4.10Q73.73-3.50 73.87-2.80Q74.00-2.10 74.57-1.46Q75.13-0.81 76.27-0.81L76.27-0.81Q77.58-0.81 78.17-1.80Q78.76-2.79 78.76-4.26ZM93.56-2.20L93.56 0L87.40 0L87.40-0.84L87.67-0.84Q87.93-0.84 88.05-0.90Q88.16-0.96 88.18-1.06Q88.21-1.17 88.21-1.41L88.21-1.41L88.21-6.90Q88.21-7.22 88.12-7.33Q88.04-7.44 87.67-7.44L87.67-7.44L87.40-7.44L87.40-8.28L90.57-8.28L90.57-7.44L90.23-7.44Q89.84-7.44 89.75-7.33Q89.66-7.22 89.66-6.84L89.66-6.84L89.66-1.01L91.96-1.01Q92.19-1.01 92.29-1.05Q92.40-1.10 92.44-1.22Q92.48-1.34 92.48-1.55L92.48-1.55L92.48-2.20L93.56-2.20ZM108.35-4.22L108.35-4.22Q108.35-2.95 107.85-1.93Q107.36-0.92 106.44-0.35Q105.51 0.23 104.25 0.23L104.25 0.23Q103.35 0.23 102.60-0.08Q101.85-0.39 101.32-0.96Q100.79-1.54 100.52-2.33Q100.24-3.12 100.24-4.05L100.24-4.05Q100.24-5.07 100.53-5.90Q100.82-6.73 101.36-7.32Q101.91-7.91 102.67-8.21Q103.42-8.52 104.34-8.52L104.34-8.52Q105.66-8.52 106.57-7.94Q107.48-7.36 107.91-6.38Q108.35-5.41 108.35-4.22ZM106.80-4.26L106.80-4.26Q106.80-4.86 106.69-5.40Q106.58-5.94 106.31-6.41Q106.03-6.88 105.54-7.17Q105.05-7.45 104.31-7.45L104.31-7.45Q103.51-7.45 102.93-7.06Q102.36-6.67 102.07-5.92Q101.78-5.16 101.78-4.10L101.78-4.10Q101.78-3.50 101.91-2.80Q102.05-2.10 102.61-1.46Q103.18-0.81 104.31-0.81L104.31-0.81Q105.63-0.81 106.21-1.80Q106.80-2.79 106.80-4.26ZM123.36-4.04L123.36-3.21L123.02-3.21Q122.70-3.21 122.62-3.08Q122.54-2.96 122.54-2.58L122.54-2.58L122.54-0.53Q122.06-0.28 121.64-0.11Q121.21 0.05 120.71 0.14Q120.21 0.23 119.63 0.23L119.63 0.23Q118.41 0.23 117.58-0.22Q116.75-0.66 116.30-1.35Q115.85-2.04 115.68-2.76Q115.51-3.47 115.51-4.08L115.51-4.08Q115.51-5.17 115.94-6.18Q116.37-7.20 117.33-7.86Q118.29-8.52 119.77-8.52L119.77-8.52Q120.03-8.52 120.28-8.50Q120.53-8.48 120.92-8.41Q121.31-8.34 121.73-8.21Q122.15-8.07 122.54-7.86L122.54-7.86L122.54-5.72L121.34-5.72L121.34-6.16Q121.34-6.66 121.21-6.90L121.21-6.90Q121.05-7.21 120.63-7.36Q120.21-7.51 119.75-7.51L119.75-7.51Q118.85-7.51 118.23-7.05Q117.62-6.60 117.32-5.84Q117.03-5.09 117.03-4.18L117.03-4.18Q117.03-3.09 117.40-2.34Q117.76-1.59 118.37-1.24Q118.97-0.88 119.68-0.88L119.68-0.88Q120.50-0.88 121.13-1.20L121.13-1.20L121.13-2.63Q121.13-2.98 121.04-3.09Q120.96-3.21 120.59-3.21L120.59-3.21L120.26-3.21L120.26-4.04L123.36-4.04ZM133.33-0.84L133.33 0L130.25 0L130.25-0.84L130.51-0.84Q130.91-0.84 130.99-0.95Q131.07-1.05 131.07-1.45L131.07-1.45L131.07-6.86Q131.07-7.11 131.05-7.22Q131.02-7.33 130.90-7.39Q130.79-7.44 130.51-7.44L130.51-7.44L130.25-7.44L130.25-8.28L133.33-8.28L133.33-7.44L133.09-7.44Q132.81-7.44 132.69-7.39Q132.57-7.33 132.55-7.20Q132.52-7.08 132.52-6.78L132.52-6.78L132.52-1.45Q132.52-1.17 132.55-1.06Q132.57-0.94 132.69-0.89Q132.81-0.84 133.09-0.84L133.09-0.84L133.33-0.84ZM146.79-2.06L146.79 0L140.44 0L140.44-0.84L140.74-0.84Q140.99-0.84 141.10-0.89Q141.20-0.95 141.22-1.05Q141.25-1.16 141.25-1.39L141.25-1.39L141.25-6.93Q141.25-7.22 141.16-7.33Q141.08-7.44 140.74-7.44L140.74-7.44L140.44-7.44L140.44-8.28L146.66-8.28L146.66-6.26L145.58-6.26L145.58-6.77Q145.58-7.09 145.46-7.17Q145.34-7.25 144.92-7.25L144.92-7.25L142.70-7.25L142.70-4.76L144.42-4.76Q144.68-4.76 144.76-4.83Q144.84-4.90 144.84-5.16L144.84-5.16L144.84-5.48L145.82-5.48L145.82-2.99L144.84-2.99L144.84-3.39Q144.84-3.60 144.76-3.67Q144.67-3.74 144.42-3.74L144.42-3.74L142.70-3.74L142.70-1.01L145.17-1.01Q145.44-1.01 145.55-1.06Q145.67-1.12 145.70-1.22Q145.72-1.33 145.72-1.56L145.72-1.56L145.72-2.06L146.79-2.06ZM159.45-2.23L159.45-2.23Q159.45-1.55 159.13-1.01Q158.82-0.46 158.30-0.17L158.30-0.17Q157.99 0.01 157.59 0.10Q157.20 0.19 156.91 0.21Q156.63 0.23 156.40 0.23L156.40 0.23Q155.55 0.23 154.97 0.09Q154.39-0.05 153.87-0.25L153.87-0.25L153.87-2.48L155.06-2.48L155.06-2.04Q155.06-1.55 155.21-1.31L155.21-1.31Q155.40-0.99 155.77-0.85Q156.13-0.71 156.48-0.71L156.48-0.71Q157.12-0.71 157.55-1.03Q157.98-1.35 157.98-1.98L157.98-1.98Q157.98-2.39 157.80-2.67Q157.62-2.94 157.32-3.14Q157.01-3.35 156.33-3.70L156.33-3.70Q155.58-4.09 155.13-4.40Q154.68-4.71 154.34-5.19Q154.00-5.67 154.00-6.32L154.00-6.32Q154.00-6.71 154.15-7.10Q154.31-7.49 154.63-7.81Q154.96-8.13 155.48-8.32Q156.01-8.52 156.72-8.52L156.72-8.52Q157.36-8.52 157.96-8.39Q158.57-8.27 159.12-8.00L159.12-8.00L159.12-6.04L158.00-6.04L158.00-6.40Q158.00-6.91 157.88-7.13L157.88-7.13Q157.77-7.34 157.44-7.47Q157.11-7.61 156.73-7.61L156.73-7.61Q155.99-7.61 155.70-7.25Q155.42-6.90 155.42-6.50L155.42-6.50Q155.42-6 155.80-5.67Q156.19-5.34 157.04-4.91L157.04-4.91Q157.94-4.45 158.41-4.14Q158.88-3.83 159.16-3.38Q159.45-2.92 159.45-2.23Z" transform="translate(-0.333984375, 8.51953125)"></path></g></g></g></g></g></g></g><mask id="41693f5a-0a01-4d01-98b8-67bf736b1348"><g fill="white"><rect stroke-width="2" class="i-icon-bg" x="0" y="0" width="169.1199951171875" height="12.750000953674316" fill-opacity="1"></rect> </g> <g transform="translate(5,2)" fill="black"><g transform="scale(1, 1)"><g transform="scale(1)"><path d="M7.79-8.28L7.79-6.05L6.71-6.05L6.71-6.77Q6.71-6.99 6.69-7.08Q6.66-7.18 6.55-7.22Q6.44-7.27 6.17-7.27L6.17-7.27L4.79-7.27L4.79-1.44Q4.79-1.05 4.88-0.95Q4.97-0.84 5.39-0.84L5.39-0.84L5.67-0.84L5.67 0L2.46 0L2.46-0.84L2.81-0.84Q3.18-0.84 3.26-0.94Q3.33-1.05 3.33-1.39L3.33-1.39L3.33-7.27L1.98-7.27Q1.70-7.27 1.59-7.23Q1.48-7.20 1.45-7.09Q1.42-6.98 1.42-6.69L1.42-6.69L1.42-6.05L0.33-6.05L0.33-8.28L7.79-8.28ZM21-2.06L21 0L14.65 0L14.65-0.84L14.95-0.84Q15.20-0.84 15.30-0.89Q15.40-0.95 15.43-1.05Q15.45-1.16 15.45-1.39L15.45-1.39L15.45-6.93Q15.45-7.22 15.37-7.33Q15.29-7.44 14.95-7.44L14.95-7.44L14.65-7.44L14.65-8.28L20.87-8.28L20.87-6.26L19.79-6.26L19.79-6.77Q19.79-7.09 19.66-7.17Q19.54-7.25 19.13-7.25L19.13-7.25L16.90-7.25L16.90-4.76L18.62-4.76Q18.88-4.76 18.96-4.83Q19.04-4.90 19.04-5.16L19.04-5.16L19.04-5.48L20.03-5.48L20.03-2.99L19.04-2.99L19.04-3.39Q19.04-3.60 18.96-3.67Q18.88-3.74 18.62-3.74L18.62-3.74L16.90-3.74L16.90-1.01L19.38-1.01Q19.64-1.01 19.76-1.06Q19.88-1.12 19.90-1.22Q19.93-1.33 19.93-1.56L19.93-1.56L19.93-2.06L21-2.06ZM35.02-1.96L35.02-0.67Q33.81 0.23 32.09 0.23L32.09 0.23Q30.74 0.23 29.84-0.40Q28.93-1.03 28.51-2.00Q28.09-2.98 28.09-4.05L28.09-4.05Q28.09-4.72 28.28-5.47Q28.46-6.22 28.93-6.92Q29.40-7.62 30.23-8.07Q31.07-8.52 32.30-8.52L32.30-8.52Q33.80-8.52 35.02-7.85L35.02-7.85L35.02-5.70L33.80-5.70L33.80-5.92Q33.80-6.48 33.74-6.74L33.74-6.74Q33.64-7.16 33.17-7.35Q32.69-7.54 32.22-7.54L32.22-7.54Q31.38-7.54 30.79-7.11Q30.19-6.69 29.89-5.93Q29.59-5.18 29.59-4.25L29.59-4.25Q29.59-3.11 29.99-2.37Q30.39-1.63 31.01-1.30Q31.62-0.97 32.27-0.97L32.27-0.97Q32.58-0.97 33.01-1.05Q33.45-1.12 33.98-1.33Q34.50-1.55 35.02-1.96L35.02-1.96ZM50.24-0.84L50.24 0L47.17 0L47.17-0.84L47.41-0.84Q47.80-0.84 47.89-0.95Q47.98-1.05 47.98-1.39L47.98-1.39L47.98-3.86L44.38-3.86L44.38-1.50Q44.38-1.20 44.41-1.08Q44.44-0.96 44.55-0.90Q44.67-0.84 44.94-0.84L44.94-0.84L45.20-0.84L45.20 0L42.13 0L42.13-0.84L42.43-0.84Q42.77-0.84 42.86-0.94Q42.94-1.05 42.94-1.39L42.94-1.39L42.94-6.89Q42.94-7.22 42.85-7.33Q42.76-7.44 42.39-7.44L42.39-7.44L42.13-7.44L42.13-8.28L45.20-8.28L45.20-7.44L44.94-7.44Q44.57-7.44 44.48-7.32Q44.38-7.20 44.38-6.89L44.38-6.89L44.38-4.95L47.98-4.95L47.98-6.89Q47.98-7.21 47.89-7.33Q47.80-7.44 47.41-7.44L47.41-7.44L47.17-7.44L47.17-8.28L50.24-8.28L50.24-7.44L49.97-7.44Q49.61-7.44 49.52-7.34Q49.44-7.24 49.44-6.89L49.44-6.89L49.44-1.39Q49.44-1.06 49.53-0.95Q49.62-0.84 49.97-0.84L49.97-0.84L50.24-0.84ZM65.21-8.28L65.21-7.44L64.94-7.44Q64.68-7.44 64.57-7.39Q64.46-7.33 64.44-7.22Q64.41-7.11 64.41-6.85L64.41-6.85L64.41 0.05L62.92 0.05L59.29-6.72L59.26-6.72L59.26-1.41Q59.26-1.16 59.29-1.05Q59.31-0.95 59.43-0.89Q59.55-0.84 59.82-0.84L59.82-0.84L60.06-0.84L60.06 0L57.29 0L57.29-0.84L57.56-0.84Q57.81-0.84 57.93-0.89Q58.04-0.94 58.07-1.06Q58.10-1.17 58.10-1.44L58.10-1.44L58.10-6.90Q58.10-7.22 58.01-7.33Q57.92-7.44 57.56-7.44L57.56-7.44L57.29-7.44L57.29-8.28L60.01-8.28L63.22-2.20L63.25-2.20L63.25-6.85Q63.25-7.10 63.22-7.21Q63.19-7.32 63.07-7.38Q62.95-7.44 62.66-7.44L62.66-7.44L62.46-7.44L62.46-8.28L65.21-8.28ZM80.30-4.22L80.30-4.22Q80.30-2.95 79.81-1.93Q79.32-0.92 78.39-0.35Q77.47 0.23 76.21 0.23L76.21 0.23Q75.31 0.23 74.56-0.08Q73.81-0.39 73.28-0.96Q72.75-1.54 72.47-2.33Q72.20-3.12 72.20-4.05L72.20-4.05Q72.20-5.07 72.49-5.90Q72.77-6.73 73.32-7.32Q73.87-7.91 74.63-8.21Q75.38-8.52 76.29-8.52L76.29-8.52Q77.62-8.52 78.53-7.94Q79.44-7.36 79.87-6.38Q80.30-5.41 80.30-4.22ZM78.76-4.26L78.76-4.26Q78.76-4.86 78.65-5.40Q78.54-5.94 78.26-6.41Q77.99-6.88 77.50-7.17Q77.01-7.45 76.27-7.45L76.27-7.45Q75.46-7.45 74.89-7.06Q74.32-6.67 74.03-5.92Q73.73-5.16 73.73-4.10L73.73-4.10Q73.73-3.50 73.87-2.80Q74.00-2.10 74.57-1.46Q75.13-0.81 76.27-0.81L76.27-0.81Q77.58-0.81 78.17-1.80Q78.76-2.79 78.76-4.26ZM93.56-2.20L93.56 0L87.40 0L87.40-0.84L87.67-0.84Q87.93-0.84 88.05-0.90Q88.16-0.96 88.18-1.06Q88.21-1.17 88.21-1.41L88.21-1.41L88.21-6.90Q88.21-7.22 88.12-7.33Q88.04-7.44 87.67-7.44L87.67-7.44L87.40-7.44L87.40-8.28L90.57-8.28L90.57-7.44L90.23-7.44Q89.84-7.44 89.75-7.33Q89.66-7.22 89.66-6.84L89.66-6.84L89.66-1.01L91.96-1.01Q92.19-1.01 92.29-1.05Q92.40-1.10 92.44-1.22Q92.48-1.34 92.48-1.55L92.48-1.55L92.48-2.20L93.56-2.20ZM108.35-4.22L108.35-4.22Q108.35-2.95 107.85-1.93Q107.36-0.92 106.44-0.35Q105.51 0.23 104.25 0.23L104.25 0.23Q103.35 0.23 102.60-0.08Q101.85-0.39 101.32-0.96Q100.79-1.54 100.52-2.33Q100.24-3.12 100.24-4.05L100.24-4.05Q100.24-5.07 100.53-5.90Q100.82-6.73 101.36-7.32Q101.91-7.91 102.67-8.21Q103.42-8.52 104.34-8.52L104.34-8.52Q105.66-8.52 106.57-7.94Q107.48-7.36 107.91-6.38Q108.35-5.41 108.35-4.22ZM106.80-4.26L106.80-4.26Q106.80-4.86 106.69-5.40Q106.58-5.94 106.31-6.41Q106.03-6.88 105.54-7.17Q105.05-7.45 104.31-7.45L104.31-7.45Q103.51-7.45 102.93-7.06Q102.36-6.67 102.07-5.92Q101.78-5.16 101.78-4.10L101.78-4.10Q101.78-3.50 101.91-2.80Q102.05-2.10 102.61-1.46Q103.18-0.81 104.31-0.81L104.31-0.81Q105.63-0.81 106.21-1.80Q106.80-2.79 106.80-4.26ZM123.36-4.04L123.36-3.21L123.02-3.21Q122.70-3.21 122.62-3.08Q122.54-2.96 122.54-2.58L122.54-2.58L122.54-0.53Q122.06-0.28 121.64-0.11Q121.21 0.05 120.71 0.14Q120.21 0.23 119.63 0.23L119.63 0.23Q118.41 0.23 117.58-0.22Q116.75-0.66 116.30-1.35Q115.85-2.04 115.68-2.76Q115.51-3.47 115.51-4.08L115.51-4.08Q115.51-5.17 115.94-6.18Q116.37-7.20 117.33-7.86Q118.29-8.52 119.77-8.52L119.77-8.52Q120.03-8.52 120.28-8.50Q120.53-8.48 120.92-8.41Q121.31-8.34 121.73-8.21Q122.15-8.07 122.54-7.86L122.54-7.86L122.54-5.72L121.34-5.72L121.34-6.16Q121.34-6.66 121.21-6.90L121.21-6.90Q121.05-7.21 120.63-7.36Q120.21-7.51 119.75-7.51L119.75-7.51Q118.85-7.51 118.23-7.05Q117.62-6.60 117.32-5.84Q117.03-5.09 117.03-4.18L117.03-4.18Q117.03-3.09 117.40-2.34Q117.76-1.59 118.37-1.24Q118.97-0.88 119.68-0.88L119.68-0.88Q120.50-0.88 121.13-1.20L121.13-1.20L121.13-2.63Q121.13-2.98 121.04-3.09Q120.96-3.21 120.59-3.21L120.59-3.21L120.26-3.21L120.26-4.04L123.36-4.04ZM133.33-0.84L133.33 0L130.25 0L130.25-0.84L130.51-0.84Q130.91-0.84 130.99-0.95Q131.07-1.05 131.07-1.45L131.07-1.45L131.07-6.86Q131.07-7.11 131.05-7.22Q131.02-7.33 130.90-7.39Q130.79-7.44 130.51-7.44L130.51-7.44L130.25-7.44L130.25-8.28L133.33-8.28L133.33-7.44L133.09-7.44Q132.81-7.44 132.69-7.39Q132.57-7.33 132.55-7.20Q132.52-7.08 132.52-6.78L132.52-6.78L132.52-1.45Q132.52-1.17 132.55-1.06Q132.57-0.94 132.69-0.89Q132.81-0.84 133.09-0.84L133.09-0.84L133.33-0.84ZM146.79-2.06L146.79 0L140.44 0L140.44-0.84L140.74-0.84Q140.99-0.84 141.10-0.89Q141.20-0.95 141.22-1.05Q141.25-1.16 141.25-1.39L141.25-1.39L141.25-6.93Q141.25-7.22 141.16-7.33Q141.08-7.44 140.74-7.44L140.74-7.44L140.44-7.44L140.44-8.28L146.66-8.28L146.66-6.26L145.58-6.26L145.58-6.77Q145.58-7.09 145.46-7.17Q145.34-7.25 144.92-7.25L144.92-7.25L142.70-7.25L142.70-4.76L144.42-4.76Q144.68-4.76 144.76-4.83Q144.84-4.90 144.84-5.16L144.84-5.16L144.84-5.48L145.82-5.48L145.82-2.99L144.84-2.99L144.84-3.39Q144.84-3.60 144.76-3.67Q144.67-3.74 144.42-3.74L144.42-3.74L142.70-3.74L142.70-1.01L145.17-1.01Q145.44-1.01 145.55-1.06Q145.67-1.12 145.70-1.22Q145.72-1.33 145.72-1.56L145.72-1.56L145.72-2.06L146.79-2.06ZM159.45-2.23L159.45-2.23Q159.45-1.55 159.13-1.01Q158.82-0.46 158.30-0.17L158.30-0.17Q157.99 0.01 157.59 0.10Q157.20 0.19 156.91 0.21Q156.63 0.23 156.40 0.23L156.40 0.23Q155.55 0.23 154.97 0.09Q154.39-0.05 153.87-0.25L153.87-0.25L153.87-2.48L155.06-2.48L155.06-2.04Q155.06-1.55 155.21-1.31L155.21-1.31Q155.40-0.99 155.77-0.85Q156.13-0.71 156.48-0.71L156.48-0.71Q157.12-0.71 157.55-1.03Q157.98-1.35 157.98-1.98L157.98-1.98Q157.98-2.39 157.80-2.67Q157.62-2.94 157.32-3.14Q157.01-3.35 156.33-3.70L156.33-3.70Q155.58-4.09 155.13-4.40Q154.68-4.71 154.34-5.19Q154.00-5.67 154.00-6.32L154.00-6.32Q154.00-6.71 154.15-7.10Q154.31-7.49 154.63-7.81Q154.96-8.13 155.48-8.32Q156.01-8.52 156.72-8.52L156.72-8.52Q157.36-8.52 157.96-8.39Q158.57-8.27 159.12-8.00L159.12-8.00L159.12-6.04L158.00-6.04L158.00-6.40Q158.00-6.91 157.88-7.13L157.88-7.13Q157.77-7.34 157.44-7.47Q157.11-7.61 156.73-7.61L156.73-7.61Q155.99-7.61 155.70-7.25Q155.42-6.90 155.42-6.50L155.42-6.50Q155.42-6 155.80-5.67Q156.19-5.34 157.04-4.91L157.04-4.91Q157.94-4.45 158.41-4.14Q158.88-3.83 159.16-3.38Q159.45-2.92 159.45-2.23Z" transform="translate(-0.333984375, 8.51953125)"></path></g></g></g></mask><defs v-gra="od"></defs></g></svg>