<svg width="44" height="44" viewBox="0 0 44 44" fill="none" xmlns="http://www.w3.org/2000/svg">
<path d="M22.0008 40.4333C22.2738 40.2953 22.5609 40.1633 22.8609 40.0333C23.4909 39.7633 24.1459 39.5283 24.9259 39.2782C25.0759 39.2302 26.2409 38.8682 26.4799 38.7862C30.316 37.4592 33.254 35.7752 35.2231 33.6732C37.7501 30.9762 39.1401 27.7152 39.3961 23.8762C38.7591 23.0182 38.4401 22.0801 38.4401 21.0631C38.4401 19.8331 38.9061 18.7201 39.8361 17.7241C40.7661 18.7201 41.2322 19.8341 41.2322 21.0631C41.2322 22.1261 40.8841 23.1022 40.1881 23.9912C39.9081 27.9802 38.4481 31.3902 35.8081 34.2062C33.74 36.4142 30.693 38.1612 26.7439 39.5273C26.4899 39.6153 25.3109 39.9803 25.1729 40.0253C24.4149 40.2683 23.7829 40.4953 23.1779 40.7553C23.0653 40.8032 22.9532 40.8526 22.8419 40.9033C23.8639 41.5363 24.6269 42.2703 25.0979 43.1483C25.1468 43.2405 25.1567 43.3486 25.1253 43.4482C25.0939 43.5479 25.0239 43.6307 24.9309 43.6783C24.7368 43.7799 24.4971 43.7074 24.3919 43.5153C23.9369 42.6663 23.1259 41.9483 22.0008 41.3253C20.8758 41.9483 20.0648 42.6663 19.6098 43.5153C19.5045 43.708 19.2641 43.7805 19.0698 43.6783C18.977 43.6306 18.9071 43.5476 18.8759 43.448C18.8447 43.3484 18.8548 43.2404 18.9038 43.1483C19.3748 42.2703 20.1378 41.5363 21.1598 40.9033C21.0498 40.8533 20.9378 40.8033 20.8238 40.7543C20.1708 40.4794 19.505 40.2358 18.8288 40.0243C18.6908 39.9803 17.5118 39.6153 17.2588 39.5273C13.3087 38.1612 10.2617 36.4142 8.19262 34.2072C5.55258 31.3902 4.09255 27.9802 3.81355 23.9912C3.11754 23.1012 2.76953 22.1261 2.76953 21.0631C2.76953 19.8331 3.23554 18.7201 4.16555 17.7241C5.09557 18.7201 5.56158 19.8341 5.56158 21.0631C5.56158 22.0801 5.24257 23.0182 4.60556 23.8762C4.86156 27.7162 6.25159 30.9762 8.77863 33.6732C10.7477 35.7752 13.6857 37.4592 17.5218 38.7862C17.7618 38.8692 18.9258 39.2302 19.0758 39.2782C19.8558 39.5283 20.5098 39.7643 21.1418 40.0343C21.4418 40.1623 21.7278 40.2953 22.0008 40.4333Z" fill="url(#paint0_linear_1532_1040)"/>
<path d="M3.68921 27.1533C2.48419 27.2623 1.54417 26.9843 0.869164 26.3193C0.195154 25.6553 -0.0868509 24.7293 0.0231509 23.5423C1.22817 23.4323 2.16818 23.7113 2.8432 24.3753C3.51821 25.0403 3.80021 25.9653 3.68921 27.1533Z" fill="url(#paint1_linear_1532_1040)"/>
<path d="M5.59248 26.7912C5.15247 25.6812 5.16547 24.7142 5.62748 23.8922C6.09049 23.0702 6.9165 22.5482 8.10552 22.3262C8.54353 23.4362 8.53152 24.4032 8.06952 25.2252C7.60651 26.0472 6.7805 26.5692 5.59248 26.7912Z" fill="url(#paint2_linear_1532_1040)"/>
<path d="M5.38157 31.5752C4.23855 31.9683 3.25854 31.9233 2.44052 31.4382C1.62251 30.9542 1.1215 30.1232 0.9375 28.9452C2.07952 28.5522 3.06053 28.5982 3.87755 29.0822C4.69656 29.5662 5.19757 30.3972 5.38057 31.5752H5.38157Z" fill="url(#paint3_linear_1532_1040)"/>
<path d="M7.13915 30.7713C6.44014 29.7983 6.21514 28.8573 6.46214 27.9492C6.70915 27.0412 7.38216 26.3382 8.48018 25.8392C9.17919 26.8122 9.40519 27.7532 9.15819 28.6613C8.91118 29.5693 8.23817 30.2723 7.13815 30.7713H7.13915Z" fill="url(#paint4_linear_1532_1040)"/>
<path d="M8.61358 35.5893C7.65057 36.3113 6.70355 36.5663 5.77354 36.3543C4.84352 36.1433 4.10651 35.5053 3.5625 34.4413C4.52552 33.7193 5.47253 33.4643 6.40255 33.6753C7.33256 33.8873 8.06857 34.5253 8.61258 35.5893H8.61358Z" fill="url(#paint5_linear_1532_1040)"/>
<path d="M10.0321 34.2893C9.06205 33.5773 8.55204 32.7513 8.50204 31.8123C8.45204 30.8733 8.87204 30.0003 9.76106 29.1913C10.7311 29.9043 11.2411 30.7303 11.2911 31.6683C11.3401 32.6073 10.9211 33.4813 10.0321 34.2903V34.2893Z" fill="url(#paint6_linear_1532_1040)"/>
<path d="M12.8138 38.4243C12.0898 39.3793 11.2518 39.8813 10.2988 39.9303C9.34575 39.9803 8.45873 39.5663 7.63672 38.6913C8.36073 37.7363 9.19974 37.2343 10.1528 37.1853C11.1058 37.1353 11.9928 37.5483 12.8128 38.4243H12.8138Z" fill="url(#paint7_linear_1532_1040)"/>
<path d="M13.815 36.7893C12.684 36.3673 11.963 35.7123 11.652 34.8233C11.342 33.9343 11.5 32.9803 12.128 31.9623C13.259 32.3843 13.981 33.0393 14.291 33.9283C14.601 34.8173 14.443 35.7713 13.815 36.7893Z" fill="url(#paint8_linear_1532_1040)"/>
<path d="M17.0681 40.1964C16.5051 41.2514 15.7571 41.8764 14.8231 42.0724C13.8901 42.2674 12.9481 41.9964 11.998 41.2584C12.5611 40.2034 13.3101 39.5784 14.2431 39.3834C15.1761 39.1874 16.1181 39.4584 17.0681 40.1964Z" fill="url(#paint9_linear_1532_1040)"/>
<path d="M17.798 38.4283C16.6119 38.1853 15.7959 37.6493 15.3479 36.8193C14.8999 35.9893 14.9049 35.0233 15.3629 33.9193C16.5479 34.1623 17.365 34.6993 17.813 35.5293C18.261 36.3593 18.255 37.3253 17.797 38.4283H17.798Z" fill="url(#paint10_linear_1532_1040)"/>
<path d="M40.3103 27.1532C40.2003 25.9662 40.4813 25.0402 41.1563 24.3752C41.8313 23.7112 42.7713 23.4332 43.9764 23.5422C44.0864 24.7292 43.8044 25.6552 43.1304 26.3192C42.4553 26.9842 41.5153 27.2622 40.3103 27.1532Z" fill="url(#paint11_linear_1532_1040)"/>
<path d="M38.407 26.7912C37.219 26.5692 36.393 26.0472 35.93 25.2252C35.468 24.4032 35.456 23.4362 35.894 22.3252C37.084 22.5482 37.909 23.0702 38.372 23.8922C38.834 24.7142 38.846 25.6812 38.407 26.7922V26.7912Z" fill="url(#paint12_linear_1532_1040)"/>
<path d="M38.6172 31.5752C38.8022 30.3972 39.3022 29.5652 40.1202 29.0822C40.9382 28.5982 41.9192 28.5522 43.0603 28.9452C42.8773 30.1232 42.3762 30.9552 41.5582 31.4382C40.7402 31.9233 39.7602 31.9683 38.6182 31.5752H38.6172Z" fill="url(#paint13_linear_1532_1040)"/>
<path d="M36.8617 30.7713C35.7627 30.2723 35.0897 29.5693 34.8427 28.6613C34.5957 27.7532 34.8227 26.8122 35.5207 25.8392C36.6197 26.3382 37.2917 27.0412 37.5387 27.9492C37.7857 28.8573 37.5607 29.7983 36.8617 30.7713Z" fill="url(#paint14_linear_1532_1040)"/>
<path d="M35.3867 35.5893C35.9317 34.5253 36.6687 33.8873 37.5988 33.6753C38.5288 33.4643 39.4748 33.7193 40.4388 34.4413C39.8938 35.5053 39.1558 36.1433 38.2268 36.3543C37.2968 36.5663 36.3497 36.3113 35.3867 35.5893Z" fill="url(#paint15_linear_1532_1040)"/>
<path d="M33.9671 34.2893C33.0781 33.4813 32.6591 32.6073 32.7091 31.6693C32.7591 30.7293 33.2691 29.9043 34.2391 29.1913C35.1271 30.0003 35.5461 30.8733 35.4961 31.8123C35.4461 32.7513 34.9361 33.5773 33.9671 34.2903V34.2893Z" fill="url(#paint16_linear_1532_1040)"/>
<path d="M31.1875 38.4243C32.0085 37.5483 32.8955 37.1353 33.8485 37.1843C34.8016 37.2343 35.6406 37.7363 36.3646 38.6913C35.5436 39.5663 34.6556 39.9793 33.7025 39.9313C32.7495 39.8813 31.9115 39.3793 31.1875 38.4243Z" fill="url(#paint17_linear_1532_1040)"/>
<path d="M30.187 36.7893C29.559 35.7713 29.4 34.8173 29.711 33.9283C30.021 33.0393 30.743 32.3843 31.8741 31.9623C32.5021 32.9803 32.6611 33.9343 32.3501 34.8233C32.0401 35.7123 31.318 36.3673 30.187 36.7893Z" fill="url(#paint18_linear_1532_1040)"/>
<path d="M26.9336 40.1964C27.8836 39.4584 28.8256 39.1874 29.7586 39.3834C30.6917 39.5784 31.4407 40.2034 32.0037 41.2584C31.0537 41.9964 30.1116 42.2684 29.1786 42.0724C28.2446 41.8774 27.4966 41.2524 26.9336 40.1964Z" fill="url(#paint19_linear_1532_1040)"/>
<path d="M26.2043 38.4283C25.7473 37.3253 25.7413 36.3583 26.1893 35.5283C26.6374 34.6983 27.4544 34.1623 28.6394 33.9203C29.0974 35.0233 29.1024 35.9903 28.6544 36.8203C28.2064 37.6503 27.3904 38.1853 26.2043 38.4283Z" fill="url(#paint20_linear_1532_1040)"/>
<path d="M22.2754 0C27.5911 0 31.9004 4.38261 31.9004 9.78883C31.9004 16.8866 24.7916 25.85 22.2754 25.85C19.7592 25.85 12.6504 16.8866 12.6504 9.78883C12.6504 4.38261 16.9597 0 22.2754 0ZM22.2754 3.57871C18.903 3.57871 16.1692 6.35908 16.1692 9.78883C16.1692 13.2186 18.903 15.999 22.2754 15.999C25.6477 15.999 28.3816 13.2186 28.3816 9.78883C28.3816 6.35908 25.6477 3.57871 22.2754 3.57871ZM22.2754 6.7364C23.933 6.7364 25.2767 8.10302 25.2767 9.78883C25.2767 11.4746 23.933 12.8413 22.2754 12.8413C20.6178 12.8413 19.274 11.4746 19.274 9.78883C19.274 8.10302 20.6178 6.7364 22.2754 6.7364Z" fill="url(#paint21_linear_1532_1040)"/>
<defs>
<linearGradient id="paint0_linear_1532_1040" x1="22.0008" y1="17.7241" x2="22.0008" y2="43.7246" gradientUnits="userSpaceOnUse">
<stop stop-color="#FFE9AE"/>
<stop offset="1" stop-color="#CBB17C"/>
</linearGradient>
<linearGradient id="paint1_linear_1532_1040" x1="1.85636" y1="23.5189" x2="1.85636" y2="27.1763" gradientUnits="userSpaceOnUse">
<stop stop-color="#FFE9AE"/>
<stop offset="1" stop-color="#CBB17C"/>
</linearGradient>
<linearGradient id="paint2_linear_1532_1040" x1="6.84837" y1="22.3262" x2="6.84837" y2="26.7912" gradientUnits="userSpaceOnUse">
<stop stop-color="#FFE9AE"/>
<stop offset="1" stop-color="#CBB17C"/>
</linearGradient>
<linearGradient id="paint3_linear_1532_1040" x1="3.15954" y1="28.6813" x2="3.15954" y2="31.8395" gradientUnits="userSpaceOnUse">
<stop stop-color="#FFE9AE"/>
<stop offset="1" stop-color="#CBB17C"/>
</linearGradient>
<linearGradient id="paint4_linear_1532_1040" x1="7.81008" y1="25.8392" x2="7.81008" y2="30.7713" gradientUnits="userSpaceOnUse">
<stop stop-color="#FFE9AE"/>
<stop offset="1" stop-color="#CBB17C"/>
</linearGradient>
<linearGradient id="paint5_linear_1532_1040" x1="6.08804" y1="33.6036" x2="6.08804" y2="36.4265" gradientUnits="userSpaceOnUse">
<stop stop-color="#FFE9AE"/>
<stop offset="1" stop-color="#CBB17C"/>
</linearGradient>
<linearGradient id="paint6_linear_1532_1040" x1="9.89649" y1="29.1913" x2="9.89649" y2="34.2903" gradientUnits="userSpaceOnUse">
<stop stop-color="#FFE9AE"/>
<stop offset="1" stop-color="#CBB17C"/>
</linearGradient>
<linearGradient id="paint7_linear_1532_1040" x1="10.2253" y1="37.1813" x2="10.2253" y2="39.9344" gradientUnits="userSpaceOnUse">
<stop stop-color="#FFE9AE"/>
<stop offset="1" stop-color="#CBB17C"/>
</linearGradient>
<linearGradient id="paint8_linear_1532_1040" x1="12.9715" y1="31.9623" x2="12.9715" y2="36.7893" gradientUnits="userSpaceOnUse">
<stop stop-color="#FFE9AE"/>
<stop offset="1" stop-color="#CBB17C"/>
</linearGradient>
<linearGradient id="paint9_linear_1532_1040" x1="14.5331" y1="39.3217" x2="14.5331" y2="42.1336" gradientUnits="userSpaceOnUse">
<stop stop-color="#FFE9AE"/>
<stop offset="1" stop-color="#CBB17C"/>
</linearGradient>
<linearGradient id="paint10_linear_1532_1040" x1="16.5802" y1="33.9193" x2="16.5802" y2="38.4283" gradientUnits="userSpaceOnUse">
<stop stop-color="#FFE9AE"/>
<stop offset="1" stop-color="#CBB17C"/>
</linearGradient>
<linearGradient id="paint11_linear_1532_1040" x1="42.1433" y1="23.5192" x2="42.1433" y2="27.1762" gradientUnits="userSpaceOnUse">
<stop stop-color="#FFE9AE"/>
<stop offset="1" stop-color="#CBB17C"/>
</linearGradient>
<linearGradient id="paint12_linear_1532_1040" x1="37.1509" y1="22.3252" x2="37.1509" y2="26.7922" gradientUnits="userSpaceOnUse">
<stop stop-color="#FFE9AE"/>
<stop offset="1" stop-color="#CBB17C"/>
</linearGradient>
<linearGradient id="paint13_linear_1532_1040" x1="40.8387" y1="28.6813" x2="40.8387" y2="31.8395" gradientUnits="userSpaceOnUse">
<stop stop-color="#FFE9AE"/>
<stop offset="1" stop-color="#CBB17C"/>
</linearGradient>
<linearGradient id="paint14_linear_1532_1040" x1="36.1909" y1="25.8392" x2="36.1909" y2="30.7713" gradientUnits="userSpaceOnUse">
<stop stop-color="#FFE9AE"/>
<stop offset="1" stop-color="#CBB17C"/>
</linearGradient>
<linearGradient id="paint15_linear_1532_1040" x1="37.9128" y1="33.6036" x2="37.9128" y2="36.4265" gradientUnits="userSpaceOnUse">
<stop stop-color="#FFE9AE"/>
<stop offset="1" stop-color="#CBB17C"/>
</linearGradient>
<linearGradient id="paint16_linear_1532_1040" x1="34.1026" y1="29.1913" x2="34.1026" y2="34.2903" gradientUnits="userSpaceOnUse">
<stop stop-color="#FFE9AE"/>
<stop offset="1" stop-color="#CBB17C"/>
</linearGradient>
<linearGradient id="paint17_linear_1532_1040" x1="33.776" y1="37.1804" x2="33.776" y2="39.9351" gradientUnits="userSpaceOnUse">
<stop stop-color="#FFE9AE"/>
<stop offset="1" stop-color="#CBB17C"/>
</linearGradient>
<linearGradient id="paint18_linear_1532_1040" x1="31.0305" y1="31.9623" x2="31.0305" y2="36.7893" gradientUnits="userSpaceOnUse">
<stop stop-color="#FFE9AE"/>
<stop offset="1" stop-color="#CBB17C"/>
</linearGradient>
<linearGradient id="paint19_linear_1532_1040" x1="29.4686" y1="39.3217" x2="29.4686" y2="42.134" gradientUnits="userSpaceOnUse">
<stop stop-color="#FFE9AE"/>
<stop offset="1" stop-color="#CBB17C"/>
</linearGradient>
<linearGradient id="paint20_linear_1532_1040" x1="27.4221" y1="33.9203" x2="27.4221" y2="38.4283" gradientUnits="userSpaceOnUse">
<stop stop-color="#FFE9AE"/>
<stop offset="1" stop-color="#CBB17C"/>
</linearGradient>
<linearGradient id="paint21_linear_1532_1040" x1="22.2754" y1="0" x2="22.2754" y2="25.85" gradientUnits="userSpaceOnUse">
<stop stop-color="#FFE9AE"/>
<stop offset="1" stop-color="#CBB17C"/>
</linearGradient>
</defs>
</svg>
