<svg xmlns="http://www.w3.org/2000/svg" xmlns:xlink="http://www.w3.org/1999/xlink" width="48" height="48" viewBox="0 0 48 48">
    <defs>
        <linearGradient id="c" x1="50%" x2="50%" y1="0%" y2="100%">
            <stop offset="0%" stop-color="#FFE9AE"/>
            <stop offset="100%" stop-color="#CBB17C"/>
        </linearGradient>
        <path id="b" d="M24 42.709c.273-.138.56-.27.86-.4.63-.27 1.285-.505 2.065-.755.15-.048 1.315-.41 1.554-.492 3.836-1.327 6.774-3.011 8.743-5.113 2.527-2.697 3.917-5.958 4.173-9.797-.637-.858-.956-1.796-.956-2.813 0-1.23.466-2.343 1.396-3.339.93.996 1.396 2.11 1.396 3.339 0 1.063-.348 2.039-1.044 2.928-.28 3.989-1.74 7.399-4.38 10.215-2.068 2.208-5.115 3.955-9.064 5.321-.254.088-1.433.453-1.571.498-.758.243-1.39.47-1.995.73a15.01 15.01 0 0 0-.336.148c1.022.633 1.785 1.367 2.256 2.245a.39.39 0 0 1-.167.53.402.402 0 0 1-.539-.163c-.455-.849-1.266-1.567-2.391-2.19-1.125.623-1.936 1.341-2.391 2.19a.402.402 0 0 1-.54.163.39.39 0 0 1-.166-.53c.471-.878 1.234-1.612 2.256-2.245-.11-.05-.222-.1-.336-.149a22.312 22.312 0 0 0-1.995-.73c-.138-.044-1.317-.409-1.57-.497-3.95-1.366-6.997-3.113-9.066-5.32-2.64-2.817-4.1-6.227-4.379-10.216-.696-.89-1.044-1.865-1.044-2.928 0-1.23.466-2.343 1.396-3.339.93.996 1.396 2.11 1.396 3.339 0 1.017-.319 1.955-.956 2.813.256 3.84 1.646 7.1 4.173 9.797 1.969 2.102 4.907 3.786 8.743 5.113.24.083 1.404.444 1.554.492.78.25 1.434.486 2.066.756.3.128.586.261.859.399zM5.689 29.429c-1.205.109-2.145-.169-2.82-.834-.674-.664-.956-1.59-.846-2.777 1.205-.11 2.145.169 2.82.833.675.665.957 1.59.846 2.778zm1.903-.362c-.44-1.11-.427-2.077.035-2.899.463-.822 1.289-1.344 2.478-1.566.438 1.11.426 2.077-.036 2.899-.463.822-1.289 1.344-2.477 1.566zm-.21 4.784c-1.143.393-2.123.348-2.941-.137-.818-.484-1.319-1.315-1.503-2.493 1.142-.393 2.123-.347 2.94.137.819.484 1.32 1.315 1.503 2.493zm1.757-.804c-.699-.973-.924-1.914-.677-2.822.247-.908.92-1.611 2.018-2.11.699.973.925 1.914.678 2.822-.247.908-.92 1.611-2.02 2.11zm1.474 4.818c-.963.722-1.91.977-2.84.765-.93-.211-1.667-.849-2.211-1.913.963-.722 1.91-.977 2.84-.766.93.212 1.666.85 2.21 1.914zm1.419-1.3c-.97-.712-1.48-1.538-1.53-2.477-.05-.939.37-1.812 1.259-2.621.97.713 1.48 1.539 1.53 2.477.049.939-.37 1.813-1.259 2.622zm2.782 4.135c-.724.955-1.562 1.457-2.515 1.506-.953.05-1.84-.364-2.662-1.239.724-.955 1.563-1.457 2.516-1.506.953-.05 1.84.363 2.66 1.239zm1-1.635c-1.131-.422-1.852-1.077-2.163-1.966-.31-.889-.152-1.843.476-2.861 1.131.422 1.853 1.077 2.163 1.966.31.889.152 1.843-.476 2.861zm3.253 3.407c-.563 1.055-1.311 1.68-2.245 1.876-.933.195-1.875-.076-2.825-.814.563-1.055 1.312-1.68 2.245-1.875.933-.196 1.875.075 2.825.813zm.73-1.768c-1.186-.243-2.002-.779-2.45-1.609-.448-.83-.443-1.796.015-2.9 1.185.243 2.002.78 2.45 1.61.448.83.442 1.796-.016 2.899zM42.31 29.429c-.11-1.187.171-2.113.846-2.778.675-.664 1.615-.942 2.82-.833.11 1.187-.172 2.113-.846 2.777-.675.665-1.615.943-2.82.834zm-1.903-.362c-1.188-.222-2.014-.744-2.477-1.566-.462-.822-.474-1.789-.036-2.9 1.19.223 2.015.745 2.478 1.567.462.822.474 1.789.035 2.9zm.21 4.784c.185-1.178.685-2.01 1.503-2.493.818-.484 1.799-.53 2.94-.137-.183 1.178-.684 2.01-1.502 2.493-.818.485-1.798.53-2.94.137zm-1.757-.804c-1.099-.499-1.772-1.202-2.019-2.11-.247-.908-.02-1.849.678-2.822 1.099.499 1.771 1.202 2.018 2.11.247.908.022 1.849-.677 2.822zm-1.474 4.818c.545-1.064 1.282-1.702 2.212-1.914.93-.211 1.876.044 2.84.766-.545 1.064-1.283 1.702-2.212 1.913-.93.212-1.877-.043-2.84-.765zm-1.419-1.3c-.889-.808-1.308-1.682-1.258-2.62.05-.94.56-1.765 1.53-2.478.888.809 1.307 1.682 1.257 2.621-.05.939-.56 1.765-1.529 2.478zM33.186 40.7c.821-.876 1.708-1.289 2.661-1.24.953.05 1.792.552 2.516 1.507-.821.875-1.709 1.288-2.662 1.24-.953-.05-1.791-.552-2.515-1.507zm-1-1.635c-.628-1.018-.787-1.972-.476-2.861.31-.889 1.032-1.544 2.163-1.966.628 1.018.787 1.972.476 2.861-.31.889-1.032 1.544-2.163 1.966zm-3.253 3.407c.95-.738 1.892-1.009 2.825-.813.933.195 1.682.82 2.245 1.875-.95.738-1.892 1.01-2.825.814-.934-.195-1.682-.82-2.245-1.876zm-.73-1.768c-.457-1.103-.463-2.07-.015-2.9.448-.83 1.265-1.366 2.45-1.608.458 1.103.463 2.07.015 2.9-.448.83-1.264 1.365-2.45 1.608zm-3.917-17.84l-6.51 3.726a1.134 1.134 0 0 1-1.54-.406 1.105 1.105 0 0 1-.126-.793l1.574-7.265-5.595-4.963a1.107 1.107 0 0 1-.087-1.575c.187-.206.445-.336.723-.365l7.48-.766 3.05-6.794a1.132 1.132 0 0 1 2.06 0l3.05 6.794 7.48.766c.62.064 1.07.612 1.006 1.224a1.11 1.11 0 0 1-.369.716l-5.594 4.963 1.574 7.265a1.115 1.115 0 0 1-.866 1.324 1.138 1.138 0 0 1-.801-.125l-6.51-3.725zm5.363-5.137l6.08-5.395-8.128-.832-3.315-7.385L20.97 11.5l-8.13.832 6.082 5.395-1.711 7.898 7.074-4.048 7.074 4.048-1.711-7.898zm-5.363 1.557l-4.529 2.48 1.096-4.838-3.894-3.305 5.205-.51 2.122-4.524 2.121 4.523 5.206.51-3.894 3.306 1.095 4.838-4.528-2.48z"/>
        <filter id="a" width="102.3%" height="104.7%" x="-1.1%" y="-1.2%" filterUnits="objectBoundingBox">
            <feOffset dy="1" in="SourceAlpha" result="shadowOffsetOuter1"/>
            <feColorMatrix in="shadowOffsetOuter1" values="0 0 0 0 0 0 0 0 0 0 0 0 0 0 0 0 0 0 0.20151333 0"/>
        </filter>
        <filter id="d" width="102.3%" height="104.7%" x="-1.1%" y="-1.2%" filterUnits="objectBoundingBox">
            <feOffset dy="1" in="SourceAlpha" result="shadowOffsetInner1"/>
            <feComposite in="shadowOffsetInner1" in2="SourceAlpha" k2="-1" k3="1" operator="arithmetic" result="shadowInnerInner1"/>
            <feColorMatrix in="shadowInnerInner1" values="0 0 0 0 1 0 0 0 0 1 0 0 0 0 1 0 0 0 0.4 0"/>
        </filter>
    </defs>
    <g fill="none" fill-rule="evenodd">
        <use fill="#000" filter="url(#a)" xlink:href="#b"/>
        <use fill="url(#c)" xlink:href="#b"/>
        <use fill="#000" filter="url(#d)" xlink:href="#b"/>
    </g>
</svg>
